<?xml version="1.0" standalone="no"?>
<!DOCTYPE svg PUBLIC "-//W3C//DTD SVG 1.1//EN" "http://www.w3.org/Graphics/SVG/1.1/DTD/svg11.dtd" >
<!--
2013-9-30: Created.
-->
<svg>
<metadata>
Created by iconfont
</metadata>
<defs>

<font id="iconfont" horiz-adv-x="1024" >
  <font-face
    font-family="iconfont"
    font-weight="500"
    font-stretch="normal"
    units-per-em="1024"
    ascent="896"
    descent="-128"
  />
    <missing-glyph />
    
    <glyph glyph-name="-company" unicode="&#58986;" d="M184.685714 675.657143l146.285714 0 0-109.714286-146.285714 0 0 109.714286ZM404.114286 675.657143l146.285714 0 0-109.714286-146.285714 0 0 109.714286ZM184.685714 492.8l146.285714 0 0-109.714286-146.285714 0 0 109.714286ZM404.114286 492.8l146.285714 0 0-109.714286-146.285714 0 0 109.714286ZM769.828571 492.8l73.142857 0 0-109.714286-73.142857 0 0 109.714286ZM769.828571 309.942857l73.142857 0 0-109.714286-73.142857 0 0 109.714286ZM184.685714 309.942857l146.285714 0 0-109.714286-146.285714 0 0 109.714286ZM404.114286 309.942857l146.285714 0 0-109.714286-146.285714 0 0 109.714286ZM989.257143-19.200000000000045l0 658.285714-292.571429 0 0 219.428571-658.285714 0 0-877.714286-36.571429 0 0-73.142857 1024 0 0 73.142857L989.257143-19.200000000000045zM111.542857-19.200000000000045l0 804.571429 512 0 0-804.571429L111.542857-19.200000000000045zM696.685714-19.200000000000045l0 585.142857 219.428571 0 0-585.142857L696.685714-19.200000000000045z"  horiz-adv-x="1026" />

    
    <glyph glyph-name="-select" unicode="&#58961;" d="M830.336744 478.841042L193.66121 841.122135 218.096738 155.98384299999998 464.016661 285.665391 696.011432-91.66648999999995 810.202171-24.295079999999984 592.170412 353.24555599999997Z"  horiz-adv-x="1024" />

    
    <glyph glyph-name="-multi" unicode="&#58995;" d="M94.208 510.976L28.672 510.976l0-126.976 65.536 0L94.208 510.976zM94.208 318.46400000000006L28.672 318.46400000000006l0-126.976 65.536 0L94.208 318.46400000000006zM94.208 703.488L28.672 703.488l0-126.976 65.536 0L94.208 703.488zM864.256 769.024l65.536 0L929.792 896l-126.976 0 0-65.536 65.536 0L868.352 769.024zM737.28 896l-126.976 0 0-65.536L737.28 830.4639999999999 737.28 896zM864.256 572.4159999999999l65.536 0L929.792 703.488l-65.536 0L864.256 572.4159999999999zM221.184 830.4639999999999l126.976 0L348.16 896 221.184 896 221.184 830.4639999999999zM544.768 896l-126.976 0 0-65.536 126.976 0L544.768 896zM995.328 318.46400000000006L479.232 703.488 479.232-5.1200000000000045l180.224 217.088 200.704-335.872 110.592 65.536-200.704 335.872L995.328 318.46400000000006zM221.184-5.1200000000000045l126.976 0 0 65.536L221.184 60.416000000000054 221.184-5.1200000000000045zM28.672 769.024l65.536 0L94.208 830.4639999999999l65.536 0L159.744 896 28.672 896 28.672 769.024zM94.208 121.856L28.672 121.856 28.672-5.1200000000000045l126.976 0 0 65.536L94.208 60.416000000000054 94.208 121.856z"  horiz-adv-x="1024" />

    
    <glyph glyph-name="-undo" unicode="&#59750;" d="M426.666667 0c-8.533333 0-21.333333 4.266667-29.866667 12.8l-384 341.333333C4.266667 358.4 0 371.20000000000005 0 384s4.266667 25.6 12.8 29.866667l384 341.333333c12.8 12.8 29.866667 12.8 46.933333 8.533333C460.8 759.466667 469.333333 742.4 469.333333 725.333333l0-213.333333c0-25.6-17.066667-42.666667-42.666667-42.666667S384 486.4 384 512L384 631.4666669999999 106.666667 384 384 136.53333299999997 384 256c0 25.6 17.066667 42.666667 42.666667 42.666667s42.666667-17.066667 42.666667-42.666667l0-213.333333c0-17.066667-8.533333-34.133333-25.6-38.4C439.466667 0 430.933333 0 426.666667 0zM981.333333 0c-17.066667 0-34.133333 8.533333-38.4 25.6 0 0-85.333333 187.733333-516.266667 187.733333-25.6 0-42.666667 17.066667-42.666667 42.666667s17.066667 42.666667 42.666667 42.666667c260.266667 0 409.6-64 494.933333-123.733333C832 465.066667 443.733333 469.333333 426.666667 469.333333c-25.6 0-42.666667 17.066667-42.666667 42.666667 0 25.6 17.066667 42.666667 42.666667 42.666667 4.266667 0 597.333333-4.266667 597.333333-512 0-21.333333-12.8-38.4-34.133333-42.666667C985.6 0 985.6 0 981.333333 0z"  horiz-adv-x="1024" />

    
    <glyph glyph-name="-max" unicode="&#58880;" d="M349.216 281.216l-124.192-124.224-98.528 98.528v-257.024h257.024l-98.528 98.528 124.224 124.224-60 59.968z m34.272 488.32H126.496v-257.024l98.528 98.528 124.192-124.224 59.968 59.936-124.256 124.256 98.56 98.528z m291.328-488.32l-60-59.968 124.224-124.224-98.528-98.528h256.992v257.024l-98.496-98.528-124.192 124.224z m-34.304 488.32l98.528-98.496-124.224-124.256 60-59.936 124.192 124.224 98.496-98.528V769.5360000000001h-256.992z"  horiz-adv-x="1024" />

    
    <glyph glyph-name="-check" unicode="&#58896;" d="M249.695446 569.157877A146.277356 146.277356 0 0 1 42.859265 362.321696l408.479516-408.552654a146.277356 146.277356 0 0 1 206.909319 0l692.477001 692.477001A146.277356 146.277356 0 1 1 1143.815782 853.082224L554.83001 264.096452 249.695446 569.157877z"  horiz-adv-x="1462" />

    
    <glyph glyph-name="-tree" unicode="&#58971;" d="M369.664 723.968v-152.576c0-14.336 11.776-26.112 26.112-26.112h232.448c14.336 0 26.112 11.776 26.112 26.112V723.968c0 14.336-11.776 26.112-26.112 26.112H395.264c-14.336 0-25.6-11.776-25.6-26.112z m537.6-503.296h-142.336c-14.336 0-26.112-11.776-26.112-26.112v-152.576c0-14.336 11.776-26.112 26.112-26.112h232.448c14.336 0 26.112 11.776 26.112 26.112V194.55999999999995c0 14.336-11.776 26.112-26.112 26.112h-90.112z m-791.04 0H26.112c-14.336 0-26.112-11.776-26.112-26.112v-152.576c0-14.336 11.776-26.112 26.112-26.112h232.448c14.336 0 26.112 11.776 26.112 26.112V194.55999999999995c0 14.336-11.776 26.112-26.112 26.112H116.224z m369.152 0H395.264c-14.336 0-26.112-11.776-26.112-26.112v-152.576c0-14.336 11.776-26.112 26.112-26.112h232.448c14.336 0 26.112 11.776 26.112 26.112V194.55999999999995c0 14.336-11.776 26.112-26.112 26.112H485.376z m395.776 188.416H537.6V488.448c0 14.336-11.776 26.112-26.112 26.112s-26.112-11.776-26.112-26.112v-79.36H141.824c-14.336 0-26.112-11.776-26.112-26.112v-102.912c0-14.336 11.776-26.112 26.112-26.112s26.112 11.776 26.112 26.112V353.28h317.44v-73.216c0-14.336 11.776-26.112 26.112-26.112s26.112 11.776 26.112 26.112V353.28h317.44v-73.216c0-14.336 11.776-26.112 26.112-26.112s26.112 11.776 26.112 26.112v102.912c0 14.336-11.776 26.112-26.112 26.112z m0 0"  horiz-adv-x="1024" />

    
    <glyph glyph-name="-undo1" unicode="&#58956;" d="M1254.656237-95.61510599999997c-2.916117-18.665609-17.066051-32.384894-36.494527-32.384894h-1.341168c-19.908343 0.627519-32.495632 15.601841-34.18132 34.796535-1.341168 14.100717-80.802278 359.592901-632.354421 359.285293v-196.868654a39.373731 39.373731 0 0 0-39.373731-39.373731c-2.916117 0-5.475409 1.058169-8.194657 1.648775l0.061521-4.76176-9.843433 7.97318a38.795429 38.795429 0 0 0-11.935162 9.695782L14.371412 423.60136a37.343523 37.343523 0 0 0 0.123043 58.974466L490.596686 892.87471v-3.309854c6.004494 3.691287 12.685724 6.42284 20.277471 6.42284a39.373731 39.373731 0 0 0 39.373731-39.373731v-196.868654c228.85981-7.02575 446.239717-93.377263 561.075664-223.421314 187.04983-211.621499 145.289067-519.130337 143.332685-531.939103z"  horiz-adv-x="1259" />

    
    <glyph glyph-name="-actual_size" unicode="&#59042;" d="M921.6-128H102.4a102.7072 102.7072 0 0 0-102.4 102.4V793.6a102.7072 102.7072 0 0 0 102.4 102.4h819.2a102.7072 102.7072 0 0 0 102.4-102.4v-819.2a102.7072 102.7072 0 0 0-102.4-102.4z m51.2 921.6a51.2 51.2 0 0 1-51.2 51.2H102.4a51.2 51.2 0 0 1-51.2-51.2v-819.2a51.2 51.2 0 0 1 51.2-51.2h819.2a51.2 51.2 0 0 1 51.2 51.2V793.6z m-204.8-307.2a78.9504 78.9504 0 0 0-102.4-51.2V486.4c47.616 0 102.4 102.4 102.4 102.4h51.2v-460.8h-51.2V486.4z m-256-307.2a51.2 51.2 0 1 0 51.2 51.2 51.2 51.2 0 0 0-51.2-51.2z m0 204.8a51.2 51.2 0 1 0 51.2 51.2 51.2 51.2 0 0 0-51.2-51.2zM256 486.4a78.9504 78.9504 0 0 0-102.4-51.2V486.4c47.616 0 102.4 102.4 102.4 102.4h51.2v-460.8H256V486.4z"  horiz-adv-x="1024" />

    
    <glyph glyph-name="-zoom_out" unicode="&#59033;" d="M1030.822567-24.321793999999954L849.025153 157.465369a60.22432 60.22432 0 0 1-5.489009 4.847344c53.814839 75.825201 85.453261 168.485413 85.453261 268.543231C928.989405 687.385882 721.031303 895.349109 464.49624 895.349109 207.961177 895.349109 0.003075 687.384857 0.003075 430.854919S207.967327-33.63824599999998 464.49624-33.63824599999998c113.223239 0 216.973197 40.530515 297.566815 107.846983 0.590414-0.645766 1.192104-1.276156 1.811219-1.900397l181.786138-181.793313c23.519199-23.513049 61.642955-23.513049 85.162155 0 23.515099 23.515099 23.515099 61.64398 0 85.163179z m-566.326327 118.801426c-185.771435 0-336.371187 150.599752-336.371187 336.375287 0 185.769385 150.599752 336.370162 336.371187 336.370162 185.775536 0 336.370162-150.599752 336.370162-336.370162 0-185.775536-150.594627-336.375287-336.370162-336.375287zM212.18018 483.93994h502.262262v-107.627628H212.18018z"  horiz-adv-x="1048" />

    
    <glyph glyph-name="-person" unicode="&#58992;" d="M535.6 384.2c95.1 10.5 172.1 87.5 182.6 182.6C732 692 634.4 797.8 512 797.8c-114.6 0-207.5-92.8-207.5-207.4v-0.1c0-122.4 105.9-219.9 231.1-206.1zM512 323.6c-138.5 0-415-79.4-415-237.1v-88.9c0-16.4 13.3-29.6 29.6-29.6h770.7c16.4 0 29.6 13.3 29.6 29.6v88.9C927 244.10000000000002 650.5 323.6 512 323.6z"  horiz-adv-x="1024" />

    
    <glyph glyph-name="-zoom_in" unicode="&#58939;" d="M783.713064 183.442589a374.930374 374.930374 0 1 1-70.898248-71.53697l40.239546 31.297424zM136.047989 75.49841000000004a484.151999 484.151999 0 1 0 733.25395 42.794438l134.131821-136.047989a63.872295 63.872295 0 0 0 0-90.698659 63.872295 63.872295 0 0 0-91.976106 0l-132.215651 134.13182a483.513276 483.513276 0 0 0-643.194014 49.82039z m399.201846 284.870438h110.499071a51.097836 51.097836 0 1 1 0 102.195672H535.249835V573.063591a51.097836 51.097836 0 1 1-102.195673 0v-110.499071H322.555091a51.097836 51.097836 0 1 1 0-102.195672h110.499071v-110.499071a51.097836 51.097836 0 1 1 102.195673 0z"  horiz-adv-x="1024" />

    
    <glyph glyph-name="-sankey" unicode="&#58936;" d="M944.283444 308.745807c-130.697857-33.964246-227.586243-77.636247-314.749676-116.450071 29.054478-29.114667 62.949935-53.379757 96.845393-82.485825 96.845393 48.52158 213.063303 82.485825 372.850032 111.600493-53.259377 29.106069-92.004413 63.078913-154.945749 87.335403a800.524377 800.524377 0 0 1 154.945749-87.335403 2517.55888 2517.55888 0 0 0 363.150876 24.25649V362.11696500000005c-222.70227 0-387.355775-19.406912-518.096625-53.371158zM585.956351 163.18106899999998C431.002003 85.54482199999995 290.579193 17.616329999999948 4.883995 17.616329999999948v-116.450071c309.908696 0 469.695425 77.636247 629.490753 160.122072 33.895458 14.557334 62.949935 33.964246 96.845392 48.52158a790.206125 790.206125 0 0 0-96.879786 82.485825c-14.488545-9.707755-33.861063-19.406912-48.384003-29.114667z m-43.62041 524.02962A1759.356533 1759.356533 0 0 0 706.972248 522.2390379999999c53.310968-53.371158 101.694971-111.600493 159.795328-160.122073 130.74085 58.229335 305.067716 97.043159 595.595296 97.04316V895.854341C973.337921 900.712518 726.344766 789.112025 542.335941 687.210689z m-48.418397-359.057969C406.754111 425.195879 329.281236 502.832126 237.276823 551.353705c-62.949935-19.406912-140.42281-24.256491-237.268202-24.25649v-436.694216c261.4817 0 435.799968 58.229335 571.381797 126.157826a69.6482 69.6482 0 0 0 14.531538 9.707756h4.84098l-4.84098 4.849578c-29.020083 29.106069-58.074561 63.070315-91.970018 97.034561z m614.967813-106.742316c-159.795328-24.265089-285.695198-63.078913-382.540591-111.600493 164.636308-131.007405 387.381571-237.758319 736.035303-237.75832V163.18106899999998c-150.087572 4.849578-256.614925 19.406912-353.460318 58.229335z m-164.636308 87.335403l-72.640493 58.229335c-58.100357 48.52158-106.527352 106.742316-159.786729 160.122073s-106.535951 111.591894-164.636308 164.971651C416.487662 803.669358 251.808361 891.004762 4.849601 891.004762v-291.129477c96.845393 0 169.477288-19.406912 237.268202-53.371158 96.845393-48.52158 169.485886-131.007405 256.640721-223.200986 29.054478-33.964246 62.949935-67.928492 96.845392-101.892737l33.895458-33.964246c92.038807 43.663403 188.849805 87.335404 314.78407 121.299649z"  horiz-adv-x="1462" />

    
    <glyph glyph-name="-redo" unicode="&#58962;" d="M597.333333 0c-4.266667 0-12.8 0-17.066666 4.266667-17.066667 4.266667-25.6 21.333333-25.6 38.4v213.333333c0 25.6 17.066667 42.666667 42.666666 42.666667s42.666667-17.066667 42.666667-42.666667v-119.466667l277.333333 247.466667L640 631.4666669999999V512c0-25.6-17.066667-42.666667-42.666667-42.666667s-42.666667 17.066667-42.666666 42.666667V725.333333c0 17.066667 8.533333 34.133333 25.6 38.4 17.066667 8.533333 34.133333 4.266667 46.933333-8.533333l384-341.333333c8.533333-8.533333 12.8-21.333333 12.8-29.866667s-4.266667-25.6-12.8-29.866667l-384-341.333333c-8.533333-8.533333-21.333333-12.8-29.866667-12.8zM42.666667 0H34.133333c-21.333333 4.266667-34.133333 21.333333-34.133333 42.666667C0 550.4 593.066667 554.666667 597.333333 554.666667c25.6 0 42.666667-17.066667 42.666667-42.666667s-17.066667-42.666667-42.666667-42.666667c-17.066667 0-405.333333-4.266667-494.933333-294.4C187.733333 234.66666699999996 337.066667 298.66666699999996 597.333333 298.66666699999996c25.6 0 42.666667-17.066667 42.666667-42.666667s-17.066667-42.666667-42.666667-42.666667C166.4 213.33333300000004 81.066667 29.866667000000007 81.066667 25.600000000000023c-4.266667-17.066667-21.333333-25.6-38.4-25.6z"  horiz-adv-x="1024" />

    
    <glyph glyph-name="-info" unicode="&#58924;" d="M181.308571 91.57714299999998h512.285715v-73.131429H181.308571zM181.308571 310.91428599999995h322.914286v-73.131429H181.308571zM181.308571 530.2514289999999H362.725714v-73.131429H181.308571zM256.68 822.857143h657.508571v-731.485714h73.142858V896H256.68zM36.668571 750.011429v-73.142858h731.428572v-731.428571H109.811429V678.628571H36.668571V-128h804.571429V749.714286"  horiz-adv-x="1024" />

    
    <glyph glyph-name="-tree2" unicode="&#58901;" d="M130.88636912 271.66310337000004h236.50747121V482.19184553H130.88636912v-210.52874216z m611.01223529 398.13059861v-124.5788715h236.56283381V755.7781741599999h-236.56283381v-85.98447218z m0-585.69093292v-85.99139279h236.56283381V208.67471918h-236.56283381V84.10276906000001z m0 273.5448065v-85.97755235h236.56283381V482.19184553h-236.56283381V357.64757555000006z m-217.36597841 292.85238707v-254.28566943H402.8671925v-38.56671764h121.6654335v-273.5448065h178.72313787V122.63488517999997H588.95350782V357.64757555000006h114.30917667v38.56671764H588.95350782V631.25466525h114.30917667v38.53903673H524.532626v-19.29373935z"  horiz-adv-x="1135" />

    
    <glyph glyph-name="-filter" unicode="&#58890;" d="M1103.976076 188.65230799999995H789.608076a28.199385 28.199385 0 0 0-26.230154 26.151384c0 13.075692 13.154462 26.151385 26.230154 26.151385h314.368c13.154462 0 26.230154-13.075692 26.230154-26.151385a28.199385 28.199385 0 0 0-26.230154-26.230154z m0 157.144615H789.608076a28.199385 28.199385 0 0 0-26.230154 26.230154c0 13.075692 13.154462 26.151385 26.230154 26.151385h314.368c13.154462 0 26.230154-13.075692 26.230154-26.151385a28.199385 28.199385 0 0 0-26.230154-26.230154z m-212.834461 370.057846c-3.308308-3.229538-311.138462-291.446154-311.138462-291.446154v-497.821538l-209.526154 104.763077v393.058461L69.027153 706.008615C65.797615 709.316923 62.568076 712.625231 59.259769 712.625231 39.567461 732.317538 29.800076 758.468923 29.800076 787.928615 29.800076 846.848 78.952076 896 137.871461 896h674.658461c58.919385 0 108.071385-49.152 108.071385-108.071385 0-29.459692-13.075692-55.689846-29.459692-72.073846zM812.529922 837.080615H137.871461a50.412308 50.412308 0 0 1-49.152-49.152c0-13.075692 3.308308-26.230154 13.154461-32.768l3.229539-3.229538 291.446154-275.140923 19.692307-16.384 3.308308-32.768-3.308308-350.365539 104.763077-52.460307V460.406154l19.692308 16.384 294.754462 271.832615 3.308307 3.308308a42.062769 42.062769 0 0 1 13.075693 32.689231c9.846154 29.538462-13.075692 52.460308-39.305847 52.460307z m-22.921846-753.270153h314.368c13.154462 0 26.230154-13.154462 26.230154-26.230154a28.199385 28.199385 0 0 0-26.230154-26.230154H789.608076a28.199385 28.199385 0 0 0-26.230154 26.230154c0 16.384 9.846154 26.230154 26.230154 26.230154z"  horiz-adv-x="1162" />

    
    <glyph glyph-name="-force" unicode="&#58980;" d="M162.048 179.20000000000005C71.8336 179.20000000000005 0 254.15679999999998 0 347.44320000000005 0 440.6784 73.6768 515.5840000000001 162.048 515.5840000000001c88.4224 0 162.0992-74.9568 162.0992-168.192C324.096 254.15679999999998 252.3136 179.20000000000005 162.048 179.20000000000005z m173.1584 502.8352c-57.088 0-104.96 47.5648-104.96 107.9296A104.96 104.96 0 0 0 335.1552 896c57.088 0 104.96-47.5648 104.96-107.8784 0-60.3648-46.08-106.0864-104.96-106.0864zM872.96 585.216c-82.8416 0-151.04 69.4784-151.04 155.392C721.92 826.5216 790.1696 896 872.96 896 955.904 896 1024 826.5216 1024 740.5568000000001c0-85.9136-68.096-155.392-151.04-155.392zM769.8432-128c-108.6464 0-198.912 91.4432-198.912 206.6432 0 115.2 90.2656 204.8 198.912 204.8S968.7552 192 968.7552 76.79999999999995c0-115.2-88.4224-204.8-198.912-204.8zM295.168 452.2496l460.3392 257.024 18.7392-31.3344-460.3392-257.024-18.7392 31.3344z m19.712-126.1568l301.1584-153.9072-17.4592-32-301.1584 153.9072 17.4592 32zM199.7824 510.6688l90.1632 214.6816 34.6624-13.6704-90.112-214.6816-34.7136 13.6704z"  horiz-adv-x="1024" />

    
    <glyph glyph-name="-list" unicode="&#58919;" d="M64 768h896v-128H64V768z m0-640h560v-128H64v128z m896 320v-128H64V448h896z"  horiz-adv-x="1024" />

    
    <glyph glyph-name="-info2" unicode="&#58881;" d="M454.897818 838.56628h113.567895c17.034263 0 28.389416 11.356176 28.389415 28.394532 0 17.03324-11.355152 28.389416-28.389415 28.389416H454.897818c-17.03324 0-28.389416-11.356176-28.389416-28.389416 0-17.038356 11.356176-28.394532 28.389416-28.394532z m0 0M909.167352 895.351251H710.42507c-17.034263 0-28.389416-11.356176-28.389416-28.389416 0-17.038356 11.355152-28.394532 28.389416-28.394531h198.742282c17.03324 0 28.394532-11.355152 28.394531-28.389416v-851.75512c0-17.03324-11.361292-28.388392-28.394531-28.388393H114.197202c-17.034263 0-28.389416 11.355152-28.389416 28.388393V810.176865c0 17.034263 11.355152 28.389416 28.389416 28.389415h198.742282c17.03324 0 28.393509 11.356176 28.393508 28.394532 0 17.03324-11.360269 28.389416-28.393508 28.389416H114.197202c-48.265281 0-85.174386-36.909105-85.174386-85.174387v-851.75512c0-48.264258 36.909105-85.173363 85.174386-85.173363h794.97015c48.264258 0 85.174386 36.909105 85.174386 85.173363V810.176865c0 48.265281-36.910129 85.174386-85.174386 85.174386z m0 0M738.819602 441.081717H284.550068c-17.034263 0-28.394532-11.355152-28.394532-28.389415 0-17.03324 11.360269-28.394532 28.394532-28.394532h454.269534c17.03324 0 28.389416 11.361292 28.389416 28.394532 0.001023 17.034263-11.356176 28.389416-28.389416 28.389415z m0-198.742281H284.550068c-17.034263 0-28.394532-11.355152-28.394532-28.389416 0-17.03324 11.360269-28.394532 28.394532-28.394532h454.269534c17.03324 0 28.389416 11.361292 28.389416 28.394532 0.001023 17.034263-11.356176 28.389416-28.389416 28.389416z m0 397.484563H284.550068c-17.034263 0-28.394532-11.355152-28.394532-28.389416 0-17.03324 11.360269-28.393509 28.394532-28.393509h454.269534c17.03324 0 28.389416 11.360269 28.389416 28.393509 0.001023 17.034263-11.356176 28.389416-28.389416 28.389416z m0 0"  horiz-adv-x="1024" />

    
    <glyph glyph-name="-redo1" unicode="&#58913;" d="M148.551586 436.347381c114.870091 130.028612 332.293974 216.378044 561.062141 223.415928v196.863909a39.372782 39.372782 0 0 0 39.372782 39.372782c7.591564 0 14.272633-2.706879 20.276982-6.422685V892.887089L1245.440375 482.573487a37.342623 37.342623 0 0 0 0.12304-58.973044l-466.653592-379.209105a38.794494 38.794494 0 0 0-11.934875-9.695547l-9.843195-7.972989 0.06152 4.761646c-2.719183-0.590592-5.278414-1.648735-8.19446-1.648735a39.372782 39.372782 0 0 0-39.372782 39.372782v196.863908c-551.538849 0.356816-630.98574-345.12704-632.33918-359.276633-1.697951-19.194231-14.272633-34.168192-34.180496-34.795696h-1.316527c-19.366487-0.036912-33.565296 13.718954-36.493647 32.396417-1.956335 12.808458-43.666876 320.309884 143.255405 531.95089z"  horiz-adv-x="1259" />

    
    <glyph glyph-name="-fit" unicode="&#58909;" d="M708.913 620.303V856.61q0 18.46 10.47 28.92T748.303 895.99q18.46 0 28.92-10.46t10.46-28.92v-196.928H984.61q18.46 0 28.92-10.46t10.46-28.92q0-18.46-10.46-28.929-10.46-10.46-28.92-10.46H748.303q-6.16 0-11.69 1.23-5.53 1.23-11.7 6.16h-8.61q0 12.31-3.69 19.07-3.7 6.76-3.7 12.93zM275.687 895.99q-18.46 0-28.92-10.46t-10.46-28.92v-196.928H39.38q-18.46 0-28.92-10.46T0 620.302q0-18.46 10.46-28.929 10.46-10.46 28.92-10.46h236.307q6.16 0 11.69 1.23 5.54 1.23 11.69 6.16h8.61q4.93 6.15 6.16 12.31 1.23 6.15 1.23 12.31V849.23q0 23.39-10.46 35.08Q294.137 896 275.677 896zM984.61 187.077H748.303q-6.16 0-11.69-1.23-5.53-1.23-11.7-6.16h-8.61q-4.93-6.15-6.16-12.31-1.23-6.15-1.23-12.3V-81.23000000000002q0-17.23 10.47-27.69t28.92-10.46q18.46 0 28.92 10.46t10.46 27.69V108.30799999999999H984.61q18.46 0 28.92 10.46t10.46 28.92q0 18.46-10.46 28.919-10.46 10.47-28.92 10.47z m-676.923-16q-12.31 12.3 0 0-12.31 6.15-19.07 11.07-6.76 4.93-12.93 4.93H39.38q-18.46 0-28.92-10.47T0 147.687q0-18.46 10.46-28.92t28.92-10.46h196.928V-88.62q0-18.46 10.46-28.92t28.92-10.46q18.46 0 28.929 10.46 10.46 10.46 10.46 28.92V147.687q0 6.16-3.69 11.69-3.69 5.53-3.69 11.7z m204.308 370.456q-66.46-1.23-111.379-46.16-44.93-44.929-46.16-111.378 1.23-66.46 46.16-111.379t111.379-46.15q66.46 1.23 111.379 46.15t46.15 111.379q-1.23 66.46-46.15 111.379-44.92 44.93-111.379 46.16z"  horiz-adv-x="1024" />

    


  </font>
</defs>
</svg>
