<?xml version="1.0" encoding="UTF-8"?>
<svg width="40px" height="40px" viewBox="0 0 40 40" version="1.1" xmlns="http://www.w3.org/2000/svg" xmlns:xlink="http://www.w3.org/1999/xlink">
    <!-- Generator: Sketch Beta 43.2 (39068) - http://www.bohemiancoding.com/sketch -->
    <title>Group 4 Copy 9</title>
    <desc>Created with Sketch Beta.</desc>
    <defs>
        <polygon id="path-1" points="0 0 16 0 16 16 0 16"></polygon>
    </defs>
    <g id="Symbols" stroke="none" stroke-width="1" fill="none" fill-rule="evenodd">
        <g id="Group-4-Copy-9">
            <g id="Group-19">
                <g transform="translate(12.000000, 12.000000)">
                    <g id="Shape-Copy-22" opacity="0">
                        <use fill="#E8D8D8" fill-rule="evenodd" xlink:href="#path-1"></use>
                        <path stroke="#D0D0D0" stroke-width="2" d="M1,1 L15,1 L15,15 L1,15 L1,1 Z"></path>
                    </g>
                    <path d="M8,4.88888889 L8,2.4 L1.6,2.4 L1.6,13.6 L14.4,13.6 L14.4,4.88888889 L8,4.88888889 L8,4.88888889 Z M4.16,12.3555556 L2.88,12.3555556 L2.88,11.1111111 L4.16,11.1111111 L4.16,12.3555556 L4.16,12.3555556 Z M4.16,9.86666667 L2.88,9.86666667 L2.88,8.62222222 L4.16,8.62222222 L4.16,9.86666667 L4.16,9.86666667 Z M4.16,7.37777778 L2.88,7.37777778 L2.88,6.13333333 L4.16,6.13333333 L4.16,7.37777778 L4.16,7.37777778 Z M4.16,4.88888889 L2.88,4.88888889 L2.88,3.64444444 L4.16,3.64444444 L4.16,4.88888889 L4.16,4.88888889 Z M6.72,12.3555556 L5.44,12.3555556 L5.44,11.1111111 L6.72,11.1111111 L6.72,12.3555556 L6.72,12.3555556 Z M6.72,9.86666667 L5.44,9.86666667 L5.44,8.62222222 L6.72,8.62222222 L6.72,9.86666667 L6.72,9.86666667 Z M6.72,7.37777778 L5.44,7.37777778 L5.44,6.13333333 L6.72,6.13333333 L6.72,7.37777778 L6.72,7.37777778 Z M6.72,4.88888889 L5.44,4.88888889 L5.44,3.64444444 L6.72,3.64444444 L6.72,4.88888889 L6.72,4.88888889 Z M13.12,12.3555556 L8,12.3555556 L8,11.1111111 L9.28,11.1111111 L9.28,9.86666667 L8,9.86666667 L8,8.62222222 L9.28,8.62222222 L9.28,7.37777778 L8,7.37777778 L8,6.13333333 L13.12,6.13333333 L13.12,12.3555556 L13.12,12.3555556 Z M11.84,7.37777778 L10.56,7.37777778 L10.56,8.62222222 L11.84,8.62222222 L11.84,7.37777778 L11.84,7.37777778 Z M11.84,9.86666667 L10.56,9.86666667 L10.56,11.1111111 L11.84,11.1111111 L11.84,9.86666667 L11.84,9.86666667 Z" id="Shape-Copy-23" fill="#008EFF"></path>
                </g>
            </g>
        </g>
    </g>
</svg>