<?xml version="1.0" encoding="UTF-8"?>
<svg width="40px" height="40px" viewBox="0 0 40 40" version="1.1" xmlns="http://www.w3.org/2000/svg" xmlns:xlink="http://www.w3.org/1999/xlink">
    <!-- Generator: Sketch Beta 43.2 (39068) - http://www.bohemiancoding.com/sketch -->
    <title>Group 7 Copy 6</title>
    <desc>Created with Sketch Beta.</desc>
    <defs>
        <polygon id="path-1" points="0 0 16 0 16 16 0 16"></polygon>
    </defs>
    <g id="Symbols" stroke="none" stroke-width="1" fill="none" fill-rule="evenodd">
        <g id="Group-7-Copy-6">
            <g id="Group-20-Copy">
                <g transform="translate(12.000000, 12.000000)">
                    <g id="Shape-Copy-20" opacity="0">
                        <use fill="#44C6C9" fill-rule="evenodd" xlink:href="#path-1"></use>
                        <path stroke="#D0D0D0" stroke-width="2" d="M1,1 L15,1 L15,15 L1,15 L1,1 Z"></path>
                    </g>
                    <path d="M8,8 C9.768,8 11.2,6.568 11.2,4.8 C11.2,3.032 9.768,1.6 8,1.6 C6.232,1.6 4.8,3.032 4.8,4.8 C4.8,6.568 6.232,8 8,8 L8,8 Z M8,9.82857143 C5.864,9.82857143 1.6,10.8495238 1.6,12.8761905 L1.6,14.4 L14.4,14.4 L14.4,12.8761905 C14.4,10.8495238 10.136,9.82857143 8,9.82857143 L8,9.82857143 Z" id="Shape-Copy-21" fill="#F18424"></path>
                </g>
            </g>
        </g>
    </g>
</svg>